<?xml version="1.0" encoding="UTF-8"?>
<svg id="Layer_1" xmlns="http://www.w3.org/2000/svg" version="1.1" viewBox="0 0 469.5 573.6">
  <!-- Generator: Adobe Illustrator 30.1.0, SVG Export Plug-In . SVG Version: 2.1.1 Build 136)  -->
  <defs>
    <style>
      .st0 {
        fill: #231f20;
      }
    </style>
  </defs>
  <path class="st0" d="M452.33,173.42l-71.72-118.07c-.66-1.63-1.61-2.84-2.46-3.91-.26-.33-.52-.66-.79-1.03l-15.47-25.74-1.15-2.15-.24-.4c-5.37-7.95-14.16-12.69-23.51-12.69h-173.83c-17.26,0-30.55,7.14-43.09,23.14l-3.84,4.86L16.9,170.24c-4.02,5.37-5.81,10.34-5.81,16.14,0,5.26,1.9,10.88,5.5,16.26l88.57,125.05,2.88,3.62c5.12,6.85,13.18,10.77,22.14,10.77h.02c8.95.01,17.02-3.92,22.15-10.77l2.88-3.63,84.56-115.28h188.91c13.42,0,24.6-9.27,26.85-21.43h.43v-4.5c0-4.66-1.35-9.44-3.65-13.05h0ZM231.8,208.02l-3.21,4.38-80.49,109.74-2.87,3.61-.08.11c-3.46,4.65-8.77,7.21-14.97,7.21s-11.52-2.55-14.97-7.2l-2.78-3.49L24.04,197.59c-1.81-2.71-3.95-6.85-3.95-11.21,0-3.82,1.16-6.93,4.01-10.74L123.35,42.96l3.81-4.83c10.83-13.82,21.6-19.71,36.02-19.71h173.83c6.28,0,12.22,3.19,15.92,8.54l1.08,2.03,9.24,15.39h-.48c-.3,0-.6,0-.88.02-1.97.09-3.93.47-5.84,1.14-1.7.69-3.2,1.64-4.99,2.8l-.74.47-.51.71c-.4.56-1.04,1.23-1.72,1.95-.89.94-1.9,2-2.77,3.23l-.25.34s-.03.07-.05.1l-113.22,152.88h0ZM446.97,186.47c0,9.34-8.2,16.93-18.27,16.93h-182.28l106.17-143.38.4-.54.22-.63c.17-.46.56-.98,1.24-1.84.24-.3.49-.62.74-.95,1.39-.98,2.76-1.69,4.13-2.13.78-.34,1.49-.48,2.5-.52h.02c1.32-.12,2.64,0,3.96.4.16.04.31.09.47.14.41.13.81.29,1.22.47.32.13.63.29.95.46.17.09.33.18.5.28.3.17.6.35.89.55.17.11.34.23.51.35.25.33.5.64.74.95.68.86,1.07,1.37,1.24,1.84l.16.44,72.22,118.89c1.29,2.02,2.13,4.83,2.27,7.51v.78h0Z"/>
  <path class="st0" d="M452.9,370.96l-88.57-125.05-2.88-3.62c-5.12-6.85-13.19-10.77-22.14-10.77s-17.02,3.92-22.15,10.77l-2.88,3.63-84.55,115.27H40.81c-13.42,0-24.61,9.27-26.86,21.43h-.43v4.5c0,4.66,1.35,9.44,3.65,13.05l71.72,118.07c.66,1.63,1.61,2.84,2.46,3.91.25.32.51.64.76.99l15.5,25.79,1.15,2.15.24.4c5.37,7.95,14.16,12.69,23.51,12.69h173.83c17.26,0,30.54-7.14,43.08-23.14l3.84-4.86,99.33-132.81c4.02-5.37,5.81-10.34,5.81-16.14,0-5.26-1.9-10.88-5.5-16.26h0ZM22.53,387.91v-.77c0-9.34,8.2-16.93,18.27-16.93h182.28l-106.17,143.37-.4.54-.22.63c-.17.46-.56.98-1.24,1.84-.24.3-.49.62-.74.95-1.38.98-2.76,1.69-4.13,2.13-.77.33-1.48.47-2.48.52h-.04c-1.15.1-2.31.01-3.46-.27-.17-.03-.33-.07-.5-.13-.16-.04-.31-.09-.47-.14-.41-.13-.81-.29-1.22-.47-.32-.13-.63-.29-.95-.46-.17-.09-.33-.18-.5-.28-.3-.17-.6-.35-.89-.55-.17-.11-.34-.23-.51-.35h0s-.02-.02-.03-.03c-.24-.32-.48-.61-.71-.91-.68-.86-1.07-1.37-1.24-1.84l-.15-.44-72.22-118.89c-1.29-2.02-2.13-4.84-2.27-7.52h-.01ZM445.4,397.96l-99.23,132.67-3.81,4.83c-10.83,13.82-21.6,19.71-36.02,19.71h-173.83c-6.29,0-12.23-3.19-15.93-8.55h-.01l-1.08-2.02-9.24-15.39h.48c.31,0,.6,0,.89-.02,1.97-.09,3.91-.47,5.83-1.14,1.7-.68,3.2-1.65,4.99-2.8l.74-.47.51-.71c.4-.56,1.04-1.23,1.72-1.95.89-.94,1.9-2,2.77-3.23l.28-.38s.02-.04.03-.06l112.17-151.47,4.25-5.79,80.49-109.74,2.87-3.61.08-.11c3.46-4.65,8.77-7.21,14.97-7.21s11.52,2.55,14.97,7.2l2.78,3.49,88.39,124.79c1.81,2.71,3.95,6.85,3.95,11.21,0,3.83-1.16,6.94-4.01,10.75h0Z"/>
</svg>